<svg xmlns="http://www.w3.org/2000/svg" width="2164.472" height="682.236" viewBox="0 0 2164.472 682.236">
  <g id="Agrupar_1" data-name="Agrupar 1" transform="translate(82.236 -438.882)" opacity="0.4">
    <path id="Caminho_16" data-name="Caminho 16" d="M-80,1040l80,40,80-40L0,1000Z" fill="none" stroke="#415297" stroke-miterlimit="10" stroke-width="2"/>
    <path id="Caminho_17" data-name="Caminho 17" d="M80,1040l80,40,80-40-80-40Z" fill="none" stroke="#415297" stroke-miterlimit="10" stroke-width="2"/>
    <path id="Caminho_18" data-name="Caminho 18" d="M240,1040l80,40,80-40-80-40Z" fill="none" stroke="#415297" stroke-miterlimit="10" stroke-width="2"/>
    <path id="Caminho_19" data-name="Caminho 19" d="M400,1040l80,40,80-40-80-40Z" fill="none" stroke="#415297" stroke-miterlimit="10" stroke-width="2"/>
    <path id="Caminho_20" data-name="Caminho 20" d="M560,1040l80,40,80-40-80-40Z" fill="none" stroke="#415297" stroke-miterlimit="10" stroke-width="2"/>
    <path id="Caminho_21" data-name="Caminho 21" d="M720,1040l80,40,80-40-80-40Z" fill="none" stroke="#415297" stroke-miterlimit="10" stroke-width="2"/>
    <path id="Caminho_22" data-name="Caminho 22" d="M880,1040l80,40,80-40-80-40Z" fill="none" stroke="#415297" stroke-miterlimit="10" stroke-width="2"/>
    <path id="Caminho_23" data-name="Caminho 23" d="M1040,1040l80,40,80-40-80-40Z" fill="none" stroke="#415297" stroke-miterlimit="10" stroke-width="2"/>
    <path id="Caminho_24" data-name="Caminho 24" d="M1680,1040l80,40,80-40-80-40Z" fill="none" stroke="#415297" stroke-miterlimit="10" stroke-width="2"/>
    <path id="Caminho_25" data-name="Caminho 25" d="M1840,1040l80,40,80-40-80-40Z" fill="none" stroke="#415297" stroke-miterlimit="10" stroke-width="2"/>
    <path id="Caminho_26" data-name="Caminho 26" d="M1200,1040l80,40,80-40-80-40Z" fill="none" stroke="#415297" stroke-miterlimit="10" stroke-width="2"/>
    <path id="Caminho_27" data-name="Caminho 27" d="M1360,1040l80,40,80-40-80-40Z" fill="none" stroke="#415297" stroke-miterlimit="10" stroke-width="2"/>
    <path id="Caminho_28" data-name="Caminho 28" d="M1520,1040l80,40,80-40-80-40Z" fill="none" stroke="#415297" stroke-miterlimit="10" stroke-width="2"/>
    <path id="Caminho_29" data-name="Caminho 29" d="M0,1080l80,40,80-40-80-40Z" fill="none" stroke="#415297" stroke-miterlimit="10" stroke-width="2"/>
    <path id="Caminho_30" data-name="Caminho 30" d="M160,1080l80,40,80-40-80-40Z" fill="none" stroke="#415297" stroke-miterlimit="10" stroke-width="2"/>
    <path id="Caminho_31" data-name="Caminho 31" d="M320,1080l80,40,80-40-80-40Z" fill="none" stroke="#415297" stroke-miterlimit="10" stroke-width="2"/>
    <path id="Caminho_32" data-name="Caminho 32" d="M480,1080l80,40,80-40-80-40Z" fill="none" stroke="#415297" stroke-miterlimit="10" stroke-width="2"/>
    <path id="Caminho_33" data-name="Caminho 33" d="M640,1080l80,40,80-40-80-40Z" fill="none" stroke="#415297" stroke-miterlimit="10" stroke-width="2"/>
    <path id="Caminho_34" data-name="Caminho 34" d="M800,1080l80,40,80-40-80-40Z" fill="none" stroke="#415297" stroke-miterlimit="10" stroke-width="2"/>
    <path id="Caminho_35" data-name="Caminho 35" d="M960,1080l80,40,80-40-80-40Z" fill="none" stroke="#415297" stroke-miterlimit="10" stroke-width="2"/>
    <path id="Caminho_36" data-name="Caminho 36" d="M1120,1080l80,40,80-40-80-40Z" fill="none" stroke="#415297" stroke-miterlimit="10" stroke-width="2"/>
    <path id="Caminho_37" data-name="Caminho 37" d="M1760,1080l80,40,80-40-80-40Z" fill="none" stroke="#415297" stroke-miterlimit="10" stroke-width="2"/>
    <path id="Caminho_38" data-name="Caminho 38" d="M1920,1080l80,40,80-40-80-40Z" fill="none" stroke="#415297" stroke-miterlimit="10" stroke-width="2"/>
    <path id="Caminho_39" data-name="Caminho 39" d="M1280,1080l80,40,80-40-80-40Z" fill="none" stroke="#415297" stroke-miterlimit="10" stroke-width="2"/>
    <path id="Caminho_40" data-name="Caminho 40" d="M1440,1080l80,40,80-40-80-40Z" fill="none" stroke="#415297" stroke-miterlimit="10" stroke-width="2"/>
    <path id="Caminho_41" data-name="Caminho 41" d="M1600,1080l80,40,80-40-80-40Z" fill="none" stroke="#415297" stroke-miterlimit="10" stroke-width="2"/>
    <path id="Caminho_42" data-name="Caminho 42" d="M-80,960l80,40,80-40L0,920Z" fill="none" stroke="#415297" stroke-miterlimit="10" stroke-width="2"/>
    <path id="Caminho_43" data-name="Caminho 43" d="M80,960l80,40,80-40-80-40Z" fill="none" stroke="#415297" stroke-miterlimit="10" stroke-width="2"/>
    <path id="Caminho_44" data-name="Caminho 44" d="M240,960l80,40,80-40-80-40Z" fill="none" stroke="#415297" stroke-miterlimit="10" stroke-width="2"/>
    <path id="Caminho_45" data-name="Caminho 45" d="M400,960l80,40,80-40-80-40Z" fill="none" stroke="#415297" stroke-miterlimit="10" stroke-width="2"/>
    <path id="Caminho_46" data-name="Caminho 46" d="M560,960l80,40,80-40-80-40Z" fill="none" stroke="#415297" stroke-miterlimit="10" stroke-width="2"/>
    <path id="Caminho_47" data-name="Caminho 47" d="M720,960l80,40,80-40-80-40Z" fill="none" stroke="#415297" stroke-miterlimit="10" stroke-width="2"/>
    <path id="Caminho_48" data-name="Caminho 48" d="M880,960l80,40,80-40-80-40Z" fill="none" stroke="#415297" stroke-miterlimit="10" stroke-width="2"/>
    <path id="Caminho_49" data-name="Caminho 49" d="M1040,960l80,40,80-40-80-40Z" fill="none" stroke="#415297" stroke-miterlimit="10" stroke-width="2"/>
    <path id="Caminho_50" data-name="Caminho 50" d="M1680,960l80,40,80-40-80-40Z" fill="none" stroke="#415297" stroke-miterlimit="10" stroke-width="2"/>
    <path id="Caminho_51" data-name="Caminho 51" d="M1840,960l80,40,80-40-80-40Z" fill="none" stroke="#415297" stroke-miterlimit="10" stroke-width="2"/>
    <path id="Caminho_52" data-name="Caminho 52" d="M1200,960l80,40,80-40-80-40Z" fill="none" stroke="#415297" stroke-miterlimit="10" stroke-width="2"/>
    <path id="Caminho_53" data-name="Caminho 53" d="M1360,960l80,40,80-40-80-40Z" fill="none" stroke="#415297" stroke-miterlimit="10" stroke-width="2"/>
    <path id="Caminho_54" data-name="Caminho 54" d="M1520,960l80,40,80-40-80-40Z" fill="none" stroke="#415297" stroke-miterlimit="10" stroke-width="2"/>
    <path id="Caminho_55" data-name="Caminho 55" d="M0,1000l80,40,80-40L80,960Z" fill="none" stroke="#415297" stroke-miterlimit="10" stroke-width="2"/>
    <path id="Caminho_56" data-name="Caminho 56" d="M160,1000l80,40,80-40-80-40Z" fill="none" stroke="#415297" stroke-miterlimit="10" stroke-width="2"/>
    <path id="Caminho_57" data-name="Caminho 57" d="M320,1000l80,40,80-40-80-40Z" fill="none" stroke="#415297" stroke-miterlimit="10" stroke-width="2"/>
    <path id="Caminho_58" data-name="Caminho 58" d="M480,1000l80,40,80-40-80-40Z" fill="none" stroke="#415297" stroke-miterlimit="10" stroke-width="2"/>
    <path id="Caminho_59" data-name="Caminho 59" d="M640,1000l80,40,80-40-80-40Z" fill="none" stroke="#415297" stroke-miterlimit="10" stroke-width="2"/>
    <path id="Caminho_60" data-name="Caminho 60" d="M800,1000l80,40,80-40-80-40Z" fill="none" stroke="#415297" stroke-miterlimit="10" stroke-width="2"/>
    <path id="Caminho_61" data-name="Caminho 61" d="M960,1000l80,40,80-40-80-40Z" fill="none" stroke="#415297" stroke-miterlimit="10" stroke-width="2"/>
    <path id="Caminho_62" data-name="Caminho 62" d="M1120,1000l80,40,80-40-80-40Z" fill="none" stroke="#415297" stroke-miterlimit="10" stroke-width="2"/>
    <path id="Caminho_63" data-name="Caminho 63" d="M1760,1000l80,40,80-40-80-40Z" fill="none" stroke="#415297" stroke-miterlimit="10" stroke-width="2"/>
    <path id="Caminho_64" data-name="Caminho 64" d="M1920,1000l80,40,80-40-80-40Z" fill="none" stroke="#415297" stroke-miterlimit="10" stroke-width="2"/>
    <path id="Caminho_65" data-name="Caminho 65" d="M1280,1000l80,40,80-40-80-40Z" fill="none" stroke="#415297" stroke-miterlimit="10" stroke-width="2"/>
    <path id="Caminho_66" data-name="Caminho 66" d="M1440,1000l80,40,80-40-80-40Z" fill="none" stroke="#415297" stroke-miterlimit="10" stroke-width="2"/>
    <path id="Caminho_67" data-name="Caminho 67" d="M1600,1000l80,40,80-40-80-40Z" fill="none" stroke="#415297" stroke-miterlimit="10" stroke-width="2"/>
    <path id="Caminho_68" data-name="Caminho 68" d="M-80,880,0,920l80-40L0,840Z" fill="none" stroke="#415297" stroke-miterlimit="10" stroke-width="2"/>
    <path id="Caminho_69" data-name="Caminho 69" d="M80,880l80,40,80-40-80-40Z" fill="none" stroke="#415297" stroke-miterlimit="10" stroke-width="2"/>
    <path id="Caminho_70" data-name="Caminho 70" d="M240,880l80,40,80-40-80-40Z" fill="none" stroke="#415297" stroke-miterlimit="10" stroke-width="2"/>
    <path id="Caminho_71" data-name="Caminho 71" d="M400,880l80,40,80-40-80-40Z" fill="none" stroke="#415297" stroke-miterlimit="10" stroke-width="2"/>
    <path id="Caminho_72" data-name="Caminho 72" d="M560,880l80,40,80-40-80-40Z" fill="none" stroke="#415297" stroke-miterlimit="10" stroke-width="2"/>
    <path id="Caminho_73" data-name="Caminho 73" d="M720,880l80,40,80-40-80-40Z" fill="none" stroke="#415297" stroke-miterlimit="10" stroke-width="2"/>
    <path id="Caminho_74" data-name="Caminho 74" d="M880,880l80,40,80-40-80-40Z" fill="none" stroke="#415297" stroke-miterlimit="10" stroke-width="2"/>
    <path id="Caminho_75" data-name="Caminho 75" d="M1040,880l80,40,80-40-80-40Z" fill="none" stroke="#415297" stroke-miterlimit="10" stroke-width="2"/>
    <path id="Caminho_76" data-name="Caminho 76" d="M1680,880l80,40,80-40-80-40Z" fill="none" stroke="#415297" stroke-miterlimit="10" stroke-width="2"/>
    <path id="Caminho_77" data-name="Caminho 77" d="M1840,880l80,40,80-40-80-40Z" fill="none" stroke="#415297" stroke-miterlimit="10" stroke-width="2"/>
    <path id="Caminho_78" data-name="Caminho 78" d="M1200,880l80,40,80-40-80-40Z" fill="none" stroke="#415297" stroke-miterlimit="10" stroke-width="2"/>
    <path id="Caminho_79" data-name="Caminho 79" d="M1360,880l80,40,80-40-80-40Z" fill="none" stroke="#415297" stroke-miterlimit="10" stroke-width="2"/>
    <path id="Caminho_80" data-name="Caminho 80" d="M1520,880l80,40,80-40-80-40Z" fill="none" stroke="#415297" stroke-miterlimit="10" stroke-width="2"/>
    <path id="Caminho_81" data-name="Caminho 81" d="M0,920l80,40,80-40L80,880Z" fill="none" stroke="#415297" stroke-miterlimit="10" stroke-width="2"/>
    <path id="Caminho_82" data-name="Caminho 82" d="M160,920l80,40,80-40-80-40Z" fill="none" stroke="#415297" stroke-miterlimit="10" stroke-width="2"/>
    <path id="Caminho_83" data-name="Caminho 83" d="M320,920l80,40,80-40-80-40Z" fill="none" stroke="#415297" stroke-miterlimit="10" stroke-width="2"/>
    <path id="Caminho_84" data-name="Caminho 84" d="M480,920l80,40,80-40-80-40Z" fill="none" stroke="#415297" stroke-miterlimit="10" stroke-width="2"/>
    <path id="Caminho_85" data-name="Caminho 85" d="M640,920l80,40,80-40-80-40Z" fill="none" stroke="#415297" stroke-miterlimit="10" stroke-width="2"/>
    <path id="Caminho_86" data-name="Caminho 86" d="M800,920l80,40,80-40-80-40Z" fill="none" stroke="#415297" stroke-miterlimit="10" stroke-width="2"/>
    <path id="Caminho_87" data-name="Caminho 87" d="M960,920l80,40,80-40-80-40Z" fill="none" stroke="#415297" stroke-miterlimit="10" stroke-width="2"/>
    <path id="Caminho_88" data-name="Caminho 88" d="M1120,920l80,40,80-40-80-40Z" fill="none" stroke="#415297" stroke-miterlimit="10" stroke-width="2"/>
    <path id="Caminho_89" data-name="Caminho 89" d="M1760,920l80,40,80-40-80-40Z" fill="none" stroke="#415297" stroke-miterlimit="10" stroke-width="2"/>
    <path id="Caminho_90" data-name="Caminho 90" d="M1920,920l80,40,80-40-80-40Z" fill="none" stroke="#415297" stroke-miterlimit="10" stroke-width="2"/>
    <path id="Caminho_91" data-name="Caminho 91" d="M1280,920l80,40,80-40-80-40Z" fill="none" stroke="#415297" stroke-miterlimit="10" stroke-width="2"/>
    <path id="Caminho_92" data-name="Caminho 92" d="M1440,920l80,40,80-40-80-40Z" fill="none" stroke="#415297" stroke-miterlimit="10" stroke-width="2"/>
    <path id="Caminho_93" data-name="Caminho 93" d="M1600,920l80,40,80-40-80-40Z" fill="none" stroke="#415297" stroke-miterlimit="10" stroke-width="2"/>
    <path id="Caminho_94" data-name="Caminho 94" d="M-80,800,0,840l80-40L0,760Z" fill="none" stroke="#415297" stroke-miterlimit="10" stroke-width="2"/>
    <path id="Caminho_95" data-name="Caminho 95" d="M80,800l80,40,80-40-80-40Z" fill="none" stroke="#415297" stroke-miterlimit="10" stroke-width="2"/>
    <path id="Caminho_96" data-name="Caminho 96" d="M240,800l80,40,80-40-80-40Z" fill="none" stroke="#415297" stroke-miterlimit="10" stroke-width="2"/>
    <path id="Caminho_97" data-name="Caminho 97" d="M400,800l80,40,80-40-80-40Z" fill="none" stroke="#415297" stroke-miterlimit="10" stroke-width="2"/>
    <path id="Caminho_98" data-name="Caminho 98" d="M560,800l80,40,80-40-80-40Z" fill="none" stroke="#415297" stroke-miterlimit="10" stroke-width="2"/>
    <path id="Caminho_99" data-name="Caminho 99" d="M720,800l80,40,80-40-80-40Z" fill="none" stroke="#415297" stroke-miterlimit="10" stroke-width="2"/>
    <path id="Caminho_100" data-name="Caminho 100" d="M880,800l80,40,80-40-80-40Z" fill="none" stroke="#415297" stroke-miterlimit="10" stroke-width="2"/>
    <path id="Caminho_101" data-name="Caminho 101" d="M1040,800l80,40,80-40-80-40Z" fill="none" stroke="#415297" stroke-miterlimit="10" stroke-width="2"/>
    <path id="Caminho_102" data-name="Caminho 102" d="M1680,800l80,40,80-40-80-40Z" fill="none" stroke="#415297" stroke-miterlimit="10" stroke-width="2"/>
    <path id="Caminho_103" data-name="Caminho 103" d="M1840,800l80,40,80-40-80-40Z" fill="none" stroke="#415297" stroke-miterlimit="10" stroke-width="2"/>
    <path id="Caminho_104" data-name="Caminho 104" d="M1200,800l80,40,80-40-80-40Z" fill="none" stroke="#415297" stroke-miterlimit="10" stroke-width="2"/>
    <path id="Caminho_105" data-name="Caminho 105" d="M1360,800l80,40,80-40-80-40Z" fill="none" stroke="#415297" stroke-miterlimit="10" stroke-width="2"/>
    <path id="Caminho_106" data-name="Caminho 106" d="M1520,800l80,40,80-40-80-40Z" fill="none" stroke="#415297" stroke-miterlimit="10" stroke-width="2"/>
    <path id="Caminho_107" data-name="Caminho 107" d="M0,760l80,40,80-40L80,720Z" fill="none" stroke="#415297" stroke-miterlimit="10" stroke-width="2"/>
    <path id="Caminho_108" data-name="Caminho 108" d="M160,760l80,40,80-40-80-40Z" fill="none" stroke="#415297" stroke-miterlimit="10" stroke-width="2"/>
    <path id="Caminho_109" data-name="Caminho 109" d="M320,760l80,40,80-40-80-40Z" fill="none" stroke="#415297" stroke-miterlimit="10" stroke-width="2"/>
    <path id="Caminho_110" data-name="Caminho 110" d="M240,720l80,40,80-40-80-40Z" fill="none" stroke="#415297" stroke-miterlimit="10" stroke-width="2"/>
    <path id="Caminho_111" data-name="Caminho 111" d="M400,720l80,40,80-40-80-40Z" fill="none" stroke="#415297" stroke-miterlimit="10" stroke-width="2"/>
    <path id="Caminho_112" data-name="Caminho 112" d="M480,680l80,40,80-40-80-40Z" fill="none" stroke="#415297" stroke-miterlimit="10" stroke-width="2"/>
    <path id="Caminho_113" data-name="Caminho 113" d="M320,680l80,40,80-40-80-40Z" fill="none" stroke="#415297" stroke-miterlimit="10" stroke-width="2"/>
    <path id="Caminho_114" data-name="Caminho 114" d="M240,640l80,40,80-40-80-40Z" fill="none" stroke="#415297" stroke-miterlimit="10" stroke-width="2"/>
    <path id="Caminho_115" data-name="Caminho 115" d="M80,640l80,40,80-40-80-40Z" fill="none" stroke="#415297" stroke-miterlimit="10" stroke-width="2"/>
    <path id="Caminho_116" data-name="Caminho 116" d="M480,760l80,40,80-40-80-40Z" fill="none" stroke="#415297" stroke-miterlimit="10" stroke-width="2"/>
    <path id="Caminho_117" data-name="Caminho 117" d="M640,760l80,40,80-40-80-40Z" fill="none" stroke="#415297" stroke-miterlimit="10" stroke-width="2"/>
    <path id="Caminho_118" data-name="Caminho 118" d="M800,760l80,40,80-40-80-40Z" fill="none" stroke="#415297" stroke-miterlimit="10" stroke-width="2"/>
    <path id="Caminho_119" data-name="Caminho 119" d="M960,760l80,40,80-40-80-40Z" fill="none" stroke="#415297" stroke-miterlimit="10" stroke-width="2"/>
    <path id="Caminho_120" data-name="Caminho 120" d="M1600,760l80,40,80-40-80-40Z" fill="none" stroke="#415297" stroke-miterlimit="10" stroke-width="2"/>
    <path id="Caminho_121" data-name="Caminho 121" d="M1120,760l80,40,80-40-80-40Z" fill="none" stroke="#415297" stroke-miterlimit="10" stroke-width="2"/>
    <path id="Caminho_122" data-name="Caminho 122" d="M1280,760l80,40,80-40-80-40Z" fill="none" stroke="#415297" stroke-miterlimit="10" stroke-width="2"/>
    <path id="Caminho_123" data-name="Caminho 123" d="M720,720l80,40,80-40-80-40Z" fill="none" stroke="#415297" stroke-miterlimit="10" stroke-width="2"/>
    <path id="Caminho_124" data-name="Caminho 124" d="M880,720l80,40,80-40-80-40Z" fill="none" stroke="#415297" stroke-miterlimit="10" stroke-width="2"/>
    <path id="Caminho_125" data-name="Caminho 125" d="M880,640l80,40,80-40-80-40Z" fill="none" stroke="#415297" stroke-miterlimit="10" stroke-width="2"/>
    <path id="Caminho_126" data-name="Caminho 126" d="M960,600l80,40,80-40-80-40Z" fill="none" stroke="#415297" stroke-miterlimit="10" stroke-width="2"/>
    <path id="Caminho_127" data-name="Caminho 127" d="M1120,600l80,40,80-40-80-40Z" fill="none" stroke="#415297" stroke-miterlimit="10" stroke-width="2"/>
    <path id="Caminho_128" data-name="Caminho 128" d="M1120,520l80,40,80-40-80-40Z" fill="none" stroke="#415297" stroke-miterlimit="10" stroke-width="2"/>
    <path id="Caminho_129" data-name="Caminho 129" d="M880,480l80,40,80-40-80-40Z" fill="none" stroke="#415297" stroke-miterlimit="10" stroke-width="2"/>
    <path id="Caminho_130" data-name="Caminho 130" d="M1040,720l80,40,80-40-80-40Z" fill="none" stroke="#415297" stroke-miterlimit="10" stroke-width="2"/>
    <path id="Caminho_131" data-name="Caminho 131" d="M1200,720l80,40,80-40-80-40Z" fill="none" stroke="#415297" stroke-miterlimit="10" stroke-width="2"/>
    <path id="Caminho_132" data-name="Caminho 132" d="M1360,720l80,40,80-40-80-40Z" fill="none" stroke="#415297" stroke-miterlimit="10" stroke-width="2"/>
    <path id="Caminho_133" data-name="Caminho 133" d="M1360,640l80,40,80-40-80-40Z" fill="none" stroke="#415297" stroke-miterlimit="10" stroke-width="2"/>
    <path id="Caminho_134" data-name="Caminho 134" d="M1520,640l80,40,80-40-80-40Z" fill="none" stroke="#415297" stroke-miterlimit="10" stroke-width="2"/>
    <path id="Caminho_135" data-name="Caminho 135" d="M1520,560l80,40,80-40-80-40Z" fill="none" stroke="#415297" stroke-miterlimit="10" stroke-width="2"/>
    <path id="Caminho_136" data-name="Caminho 136" d="M1440,760l80,40,80-40-80-40Z" fill="none" stroke="#415297" stroke-miterlimit="10" stroke-width="2"/>
    <path id="Caminho_137" data-name="Caminho 137" d="M0,840l80,40,80-40L80,800Z" fill="none" stroke="#415297" stroke-miterlimit="10" stroke-width="2"/>
    <path id="Caminho_138" data-name="Caminho 138" d="M160,840l80,40,80-40-80-40Z" fill="none" stroke="#415297" stroke-miterlimit="10" stroke-width="2"/>
    <path id="Caminho_139" data-name="Caminho 139" d="M320,840l80,40,80-40-80-40Z" fill="none" stroke="#415297" stroke-miterlimit="10" stroke-width="2"/>
    <path id="Caminho_140" data-name="Caminho 140" d="M480,840l80,40,80-40-80-40Z" fill="none" stroke="#415297" stroke-miterlimit="10" stroke-width="2"/>
    <path id="Caminho_141" data-name="Caminho 141" d="M640,840l80,40,80-40-80-40Z" fill="none" stroke="#415297" stroke-miterlimit="10" stroke-width="2"/>
    <path id="Caminho_142" data-name="Caminho 142" d="M800,840l80,40,80-40-80-40Z" fill="none" stroke="#415297" stroke-miterlimit="10" stroke-width="2"/>
    <path id="Caminho_143" data-name="Caminho 143" d="M960,840l80,40,80-40-80-40Z" fill="none" stroke="#415297" stroke-miterlimit="10" stroke-width="2"/>
    <path id="Caminho_144" data-name="Caminho 144" d="M1120,840l80,40,80-40-80-40Z" fill="none" stroke="#415297" stroke-miterlimit="10" stroke-width="2"/>
    <path id="Caminho_145" data-name="Caminho 145" d="M1760,840l80,40,80-40-80-40Z" fill="none" stroke="#415297" stroke-miterlimit="10" stroke-width="2"/>
    <path id="Caminho_146" data-name="Caminho 146" d="M1920,840l80,40,80-40-80-40Z" fill="none" stroke="#415297" stroke-miterlimit="10" stroke-width="2"/>
    <path id="Caminho_147" data-name="Caminho 147" d="M1280,840l80,40,80-40-80-40Z" fill="none" stroke="#415297" stroke-miterlimit="10" stroke-width="2"/>
    <path id="Caminho_148" data-name="Caminho 148" d="M1440,840l80,40,80-40-80-40Z" fill="none" stroke="#415297" stroke-miterlimit="10" stroke-width="2"/>
    <path id="Caminho_149" data-name="Caminho 149" d="M1600,840l80,40,80-40-80-40Z" fill="none" stroke="#415297" stroke-miterlimit="10" stroke-width="2"/>
  </g>
</svg>
