<svg xmlns="http://www.w3.org/2000/svg" width="40" height="40" viewBox="0 0 40 40">
  <g id="Group_64" data-name="Group 64" transform="translate(-1580 -880)">
    <g id="Rectangle_149" data-name="Rectangle 149" transform="translate(1580 880)" fill="none" stroke="#fff" stroke-width="3">
      <rect width="40" height="40" rx="20" stroke="none"/>
      <rect x="1.5" y="1.5" width="37" height="37" rx="18.5" fill="none"/>
    </g>
    <g id="arrow-point-to-right" transform="translate(1497.862 890)">
      <path id="Path_150" data-name="Path 150" d="M108.707,10.99l-9.052,8.6a1.529,1.529,0,0,1-2.085,0,1.352,1.352,0,0,1,0-1.98L105.58,10,97.57,2.391a1.352,1.352,0,0,1,0-1.981,1.529,1.529,0,0,1,2.085,0l9.052,8.6a1.351,1.351,0,0,1,0,1.98Z" transform="translate(0 0)" fill="#fff"/>
    </g>
  </g>
</svg>
