<svg xmlns="http://www.w3.org/2000/svg" width="40" height="40" viewBox="0 0 40 40">
  <g id="Group_63" data-name="Group 63" transform="translate(-1528 -880)">
    <g id="arrow-point-to-right" transform="translate(1541 890)">
      <path id="Path_150" data-name="Path 150" d="M97.57,10.99l9.052,8.6a1.529,1.529,0,0,0,2.085,0,1.352,1.352,0,0,0,0-1.98L100.7,10l8.009-7.609a1.352,1.352,0,0,0,0-1.981,1.529,1.529,0,0,0-2.085,0L97.57,9.01a1.351,1.351,0,0,0,0,1.98Z" transform="translate(-97.139 0)" fill="#fff"/>
    </g>
    <g id="Rectangle_148" data-name="Rectangle 148" transform="translate(1528 880)" fill="none" stroke="#fff" stroke-width="3">
      <rect width="40" height="40" rx="20" stroke="none"/>
      <rect x="1.5" y="1.5" width="37" height="37" rx="18.5" fill="none"/>
    </g>
  </g>
</svg>
