<svg xmlns="http://www.w3.org/2000/svg" width="50" height="32" viewBox="0 0 50 32">
  <path id="Union_7" data-name="Union 7" d="M-3999.683,16.976a1.662,1.662,0,0,1,0-1.954C-3999.236,14.41-3988.593,0-3975,0s24.236,14.41,24.682,15.024a1.66,1.66,0,0,1,0,1.953C-3950.765,17.59-3961.407,32-3975,32S-3999.236,17.59-3999.683,16.976Zm3.431-.978c2.567,3.127,11.239,12.691,21.252,12.691,10.034,0,18.688-9.559,21.252-12.688-2.568-3.128-11.24-12.691-21.252-12.691C-3985.034,3.31-3993.688,12.869-3996.252,16Zm11.362,0A9.922,9.922,0,0,1-3975,6.069,9.922,9.922,0,0,1-3965.11,16a9.922,9.922,0,0,1-9.89,9.931A9.922,9.922,0,0,1-3984.89,16Zm3.3,0A6.614,6.614,0,0,0-3975,22.621,6.614,6.614,0,0,0-3968.407,16,6.614,6.614,0,0,0-3975,9.379,6.614,6.614,0,0,0-3981.594,16Z" transform="translate(4000)" opacity="0.2"/>
</svg>
