<svg xmlns="http://www.w3.org/2000/svg" width="80" height="80" viewBox="0 0 80 80">
  <defs>
    <style>
      .cls-1 {
        fill: #fff;
      }
    </style>
  </defs>
  <path id="Union_1" data-name="Union 1" class="cls-1" d="M21.043,75.243A25.884,25.884,0,0,1,6.664,79.9a19.068,19.068,0,0,1-2.832-.218,3.731,3.731,0,0,1-1.073-7.035c2.4-1.173,4.508-3.618,6.3-7.286a39.859,39.859,0,1,1,11.983,9.883Zm.989-4.657a35.536,35.536,0,1,0-8.614-7.119,2.276,2.276,0,0,1,.386,2.412c-1.894,4.338-4.156,7.454-6.854,9.464A21.555,21.555,0,0,0,19.5,70.737a2.253,2.253,0,0,1,2.531-.151ZM23.239,53.2a2.261,2.261,0,1,1,0-4.523H56.756a2.261,2.261,0,1,1,0,4.523Zm0-10.938a2.261,2.261,0,1,1,0-4.523H56.756a2.261,2.261,0,1,1,0,4.523Zm0-10.938a2.261,2.261,0,1,1,0-4.523H56.756a2.261,2.261,0,1,1,0,4.523Z" transform="translate(0)"/>
</svg>
