<svg xmlns="http://www.w3.org/2000/svg" width="56" height="56" viewBox="0 0 56 56">
  <g id="Group_3" data-name="Group 3" transform="translate(-620 -528)" opacity="0.3">
    <g id="Rectangle_46" data-name="Rectangle 46" transform="translate(620 544)" fill="none" stroke="#fff" stroke-width="3">
      <rect width="56" height="40" rx="6" stroke="none"/>
      <rect x="1.5" y="1.5" width="53" height="37" rx="4.5" fill="none"/>
    </g>
    <g id="Rectangle_47" data-name="Rectangle 47" transform="translate(636 528)" fill="none" stroke="#fff" stroke-width="3">
      <path d="M12,0h0A12,12,0,0,1,24,12v7a0,0,0,0,1,0,0H0a0,0,0,0,1,0,0V12A12,12,0,0,1,12,0Z" stroke="none"/>
      <path d="M12,1.5h0A10.5,10.5,0,0,1,22.5,12v4.8a.7.7,0,0,1-.7.7H2.2a.7.7,0,0,1-.7-.7V12A10.5,10.5,0,0,1,12,1.5Z" fill="none"/>
    </g>
    <rect id="Rectangle_48" data-name="Rectangle 48" width="4" height="12" rx="2" transform="translate(646 559)" fill="#fff"/>
    <rect id="Rectangle_49" data-name="Rectangle 49" width="8" height="8" rx="4" transform="translate(644 556)" fill="#fff"/>
  </g>
</svg>
