<svg xmlns="http://www.w3.org/2000/svg" width="54.5" height="64" viewBox="0 0 54.5 64">
  <path id="Union_4" data-name="Union 4" d="M-3973.649,63.911a4.684,4.684,0,0,1-.62-.169,40.446,40.446,0,0,1-15.131-8.95,32.229,32.229,0,0,1-7.732-12.044c-3.124-8.476-2.946-17.814-2.8-25.318l0-.116c.028-.619.047-1.27.058-1.988a6.783,6.783,0,0,1,6.387-6.645c7.358-.411,13.051-2.811,17.915-7.551l.042-.04a4.1,4.1,0,0,1,5.566,0l.042.04c4.864,4.741,10.556,7.14,17.915,7.551a6.783,6.783,0,0,1,6.387,6.645c.011.724.03,1.374.058,1.989l0,.05c.143,7.518.32,16.874-2.816,25.375a32.275,32.275,0,0,1-7.732,12.046,40.473,40.473,0,0,1-15.115,8.955,4.715,4.715,0,0,1-.623.17,4.591,4.591,0,0,1-.9.089A4.6,4.6,0,0,1-3973.649,63.911Zm.668-60.062a29.258,29.258,0,0,1-9.114,6.123,32.949,32.949,0,0,1-11.184,2.46,3.015,3.015,0,0,0-2.841,2.951c-.011.748-.03,1.429-.06,2.079V17.5c-.144,7.563-.307,16.135,2.572,23.948,3.292,8.934,10.023,15.066,20.575,18.745a.944.944,0,0,0,.118.032.844.844,0,0,0,.33,0,.944.944,0,0,0,.119-.032c10.542-3.686,17.268-9.822,20.563-18.755,2.888-7.83,2.729-16.409,2.585-23.98-.029-.645-.049-1.326-.06-2.078a3.014,3.014,0,0,0-2.841-2.951,32.95,32.95,0,0,1-11.184-2.46,29.269,29.269,0,0,1-9.114-6.123.357.357,0,0,0-.232-.09A.36.36,0,0,0-3972.981,3.849ZM-3988.7,32a15.968,15.968,0,0,1,15.95-15.95A15.968,15.968,0,0,1-3956.8,32a15.968,15.968,0,0,1-15.95,15.95A15.968,15.968,0,0,1-3988.7,32Zm3.755,0A12.208,12.208,0,0,0-3972.75,44.2,12.208,12.208,0,0,0-3960.556,32a12.208,12.208,0,0,0-12.194-12.194A12.208,12.208,0,0,0-3984.944,32Zm8.042,6.44-3.339-3.339a1.878,1.878,0,0,1,0-2.655,1.878,1.878,0,0,1,2.656,0l2.011,2.011,7.408-7.408a1.877,1.877,0,0,1,2.656,0,1.878,1.878,0,0,1,0,2.655l-8.736,8.736a1.871,1.871,0,0,1-1.328.55A1.871,1.871,0,0,1-3976.9,38.441Z" transform="translate(4000 0)" fill="#fd0"/>
</svg>
