<svg xmlns="http://www.w3.org/2000/svg" width="80" height="64" viewBox="0 0 80 64">
  <g id="glasses" transform="translate(0 -50.87)">
    <path id="Path_6" data-name="Path 6" d="M78.819,91.528l-10.594-34a9.3,9.3,0,0,0-11.611-6.25,2.24,2.24,0,0,0-1.476,2.785,2.208,2.208,0,0,0,2.755,1.492,4.869,4.869,0,0,1,6.084,3.282v.017l7.577,24.352a16.344,16.344,0,0,0-8.134-2.155,16.67,16.67,0,0,0-16.466,14.82H33.013A16.659,16.659,0,0,0,16.58,81.35a16.434,16.434,0,0,0-8.167,2.172l7.675-24.667v-.017a4.869,4.869,0,0,1,6.084-3.282,2.2,2.2,0,0,0,2.755-1.492,2.233,2.233,0,0,0-1.476-2.785,9.307,9.307,0,0,0-11.611,6.25L1.279,91.561a1.75,1.75,0,0,0-.066.282A16.972,16.972,0,0,0,0,98.11a16.7,16.7,0,0,0,16.58,16.76,16.659,16.659,0,0,0,16.433-14.522H47.035a16.591,16.591,0,1,0,31.783-8.819ZM16.6,110.394A12.285,12.285,0,1,1,28.749,98.11,12.224,12.224,0,0,1,16.6,110.394Zm46.839-.3A12.285,12.285,0,1,1,75.588,97.811,12.224,12.224,0,0,1,63.435,110.1Z" transform="translate(0 0)" fill="#fff"/>
  </g>
</svg>
