<svg xmlns="http://www.w3.org/2000/svg" width="80" height="70" viewBox="0 0 80 70">
  <defs>
    <style>
      .cls-1 {
        fill: #fff;
      }
    </style>
  </defs>
  <g id="heart" transform="translate(0 -28.501)">
    <path id="Path_5" data-name="Path 5" class="cls-1" d="M73.539,35a22.226,22.226,0,0,0-31.325.017l-2.188,2.177L37.8,34.983a22.205,22.205,0,0,0-31.325-.034,21.952,21.952,0,0,0,.034,31.177l31.851,31.7a2.28,2.28,0,0,0,3.222.017L73.5,66.193A22.013,22.013,0,0,0,73.539,35Zm-3.256,27.97L39.975,93.015,9.736,62.919A17.47,17.47,0,0,1,22.116,33.075a17.542,17.542,0,0,1,12.449,5.131L38.4,42.022a2.29,2.29,0,0,0,3.239,0l3.8-3.781a17.624,17.624,0,0,1,24.846-.017,17.464,17.464,0,0,1,0,24.746Z" transform="translate(0 0)"/>
  </g>
</svg>
