<svg xmlns="http://www.w3.org/2000/svg" width="40" height="50" viewBox="0 0 40 50">
  <defs>
    <style>
      .cls-1 {
        fill: none;
      }

      .cls-2, .cls-3 {
        stroke: none;
      }

      .cls-3 {
        fill: #fff;
      }
    </style>
  </defs>
  <g id="Path_11" data-name="Path 11" class="cls-1" transform="translate(-153 -35.5)">
    <path class="cls-2" d="M187.9,53.35H172.635l2.55-11.73v-.765a5.348,5.348,0,0,0-1.02-2.805L171.36,35.5,154.53,52.33A4.279,4.279,0,0,0,153,55.9V80.4a5.115,5.115,0,0,0,5.1,5.1h22.405a5.037,5.037,0,0,0,4.59-3.06l7.65-18.105A4.339,4.339,0,0,0,193,62.55v-4.1A5.115,5.115,0,0,0,187.9,53.35Z"/>
    <path class="cls-3" d="M 171.4586486816406 39.64399719238281 L 156.6513214111328 54.45131683349609 L 156.5005645751953 54.60208129882813 L 156.3299865722656 54.73001098632813 C 156.1295318603516 54.88034820556641 156 55.339599609375 156 55.90000152587891 L 156 80.40000152587891 C 156 80.95529937744141 156.2199859619141 81.48109436035156 156.6194458007813 81.88056182861328 C 157.0189056396484 82.28001403808594 157.5446929931641 82.5 158.0999908447266 82.5 L 180.5050048828125 82.5 C 181.2812347412109 82.5 182.0162658691406 82.00302124023438 182.3356170654297 81.26275634765625 L 189.9810333251953 63.16849136352539 C 190 63.00898361206055 190 62.71633911132813 190 62.54990005493164 L 190 58.5629997253418 L 190 58.45000076293945 C 190 57.89471054077148 189.7800140380859 57.36890029907227 189.3805541992188 56.96945190429688 C 188.9810943603516 56.56999206542969 188.4552917480469 56.34999847412109 187.8999938964844 56.34999847412109 L 172.6349945068359 56.34999847412109 L 168.9127349853516 56.34999847412109 L 169.7034606933594 52.71270751953125 L 172.1849975585938 41.29766845703125 L 172.1849975585938 40.85500335693359 C 172.1849975585938 40.76892852783203 172.1189270019531 40.46784973144531 171.8437805175781 39.99410247802734 L 171.4586486816406 39.64399719238281 M 171.3600006103516 35.5 L 174.1651000976563 38.05000305175781 C 174.6750030517578 38.81500244140625 175.1849975585938 39.83499908447266 175.1849975585938 40.85500335693359 L 175.1849975585938 41.62000274658203 L 172.6349945068359 53.34999847412109 L 187.8999938964844 53.34999847412109 C 190.7050018310547 53.34999847412109 193 55.64499664306641 193 58.45000076293945 L 193 58.5629997253418 L 193 62.54990005493164 C 193 63.05989837646484 193 63.82490158081055 192.7449951171875 64.33489990234375 L 185.0950012207031 82.44000244140625 C 184.3300018310547 84.22499847412109 182.5449981689453 85.5 180.5050048828125 85.5 L 158.0999908447266 85.5 C 155.2949981689453 85.5 153 83.20500183105469 153 80.40000152587891 L 153 55.90000152587891 C 153 54.37000274658203 153.5099945068359 53.09500122070313 154.5299987792969 52.33000183105469 L 171.3600006103516 35.5 Z"/>
  </g>
</svg>
