<svg xmlns="http://www.w3.org/2000/svg" width="64.059" height="80" viewBox="0 0 64.059 80">
  <path id="Union_2" data-name="Union 2" d="M6.324,80A6.328,6.328,0,0,1,0,73.676V20.315a6.328,6.328,0,0,1,6.324-6.324h37.19a6.349,6.349,0,0,1,6.324,6.324V73.676A6.328,6.328,0,0,1,43.514,80ZM4.407,20.315V73.66a1.9,1.9,0,0,0,1.9,1.9H43.5a1.9,1.9,0,0,0,1.9-1.9V20.315a1.9,1.9,0,0,0-1.9-1.9H6.308A1.9,1.9,0,0,0,4.407,20.315ZM55.523,63.8a2.2,2.2,0,0,1,2.212-2.212,1.9,1.9,0,0,0,1.9-1.9V6.324a1.9,1.9,0,0,0-1.9-1.9H20.545a1.9,1.9,0,0,0-1.9,1.9,2.212,2.212,0,0,1-4.424,0A6.328,6.328,0,0,1,20.545,0h37.19a6.328,6.328,0,0,1,6.324,6.324V59.685a6.328,6.328,0,0,1-6.324,6.324A2.2,2.2,0,0,1,55.523,63.8Z" fill="#fff"/>
</svg>
