<svg xmlns="http://www.w3.org/2000/svg" width="42" height="36" viewBox="0 0 42 36">
  <defs>
    <style>
      .cls-1 {
        fill: none;
      }

      .cls-2, .cls-3 {
        stroke: none;
      }

      .cls-3 {
        fill: #fff;
      }
    </style>
  </defs>
  <g id="Path_12" data-name="Path 12" class="cls-1" transform="translate(0 -34.944)">
    <path class="cls-2" d="M41.579,50.5,23.03,35.209a1.156,1.156,0,0,0-1.894.9v8.06c-9,.327-15.192,3.5-18.411,9.455C-.046,58.751-.02,64.83.005,68.852v.93A1.168,1.168,0,0,0,.875,70.91a1.135,1.135,0,0,0,.293.034,1.146,1.146,0,0,0,1.007-.586C8.458,59.276,13.631,58.742,21.128,58.717v8.034A1.155,1.155,0,0,0,21.8,67.8a1.179,1.179,0,0,0,1.239-.155L41.579,52.3a1.171,1.171,0,0,0,.422-.9A1.188,1.188,0,0,0,41.579,50.5Z"/>
    <path class="cls-3" d="M 24.13631820678711 40.00893402099609 L 24.13631820678711 44.16394805908203 L 24.13631820678711 47.05686950683594 L 21.24530792236328 47.16196823120117 C 17.20735740661621 47.30875778198242 13.80481719970703 48.07907867431641 11.13218688964844 49.45151901245117 C 8.577857971191406 50.76321792602539 6.691036224365234 52.59332656860352 5.364978790283203 55.04445648193359 C 3.946201324462891 57.67166900634766 3.371772766113281 60.68480682373047 3.144119262695313 63.47504806518555 C 8.752464294433594 56.3994140625 14.29410934448242 55.74016189575195 21.11739730834961 55.71667861938477 L 24.12771797180176 55.70631790161133 L 24.12771797180176 58.71665954589844 L 24.12771797180176 62.85055160522461 L 37.9575309753418 51.4043083190918 L 24.13631820678711 40.00893402099609 M 22.29121589660645 34.94425964355469 C 22.5561695098877 34.94425964355469 22.8189525604248 35.03433990478516 23.02991676330566 35.20854187011719 L 41.57873916625977 50.50174713134766 C 41.84553909301758 50.72564697265625 42.00043869018555 51.06144714355469 42.00043869018555 51.40584945678711 C 42.00043869018555 51.75034713745117 41.84553909301758 52.07754898071289 41.57873916625977 52.30144882202148 L 23.03851699829102 67.64625549316406 C 22.8222599029541 67.82047271728516 22.56070709228516 67.91053771972656 22.29545593261719 67.91053771972656 C 22.12798118591309 67.91053771972656 21.95899772644043 67.87461090087891 21.79911804199219 67.80126953125 C 21.38591766357422 67.61186981201172 21.12771797180176 67.19845581054688 21.12771797180176 66.75076293945313 L 21.12771797180176 58.71665954589844 C 13.63080787658691 58.74245834350586 8.457805633544922 59.27635955810547 2.174396514892578 70.3587646484375 C 1.967899322509766 70.72906494140625 1.580497741699219 70.94426727294922 1.167396545410156 70.94426727294922 C 1.072696685791016 70.94426727294922 0.9693984985351563 70.9356689453125 0.8746986389160156 70.90988159179688 C 0.3582992553710938 70.77206420898438 0.005397796630859375 70.30706787109375 0.005397796630859375 69.78186798095703 L 0.005397796630859375 68.85186767578125 C -0.0204010009765625 64.83046722412109 -0.04620361328125 58.75105667114258 2.725296020507813 53.61894989013672 C 5.94439697265625 47.66864776611328 12.13310813903809 44.49124908447266 21.13631820678711 44.16394805908203 L 21.13631820678711 36.10403442382813 C 21.13631820678711 35.65634155273438 21.39461708068848 35.24293518066406 21.79911804199219 35.05353546142578 C 21.9556941986084 34.98017883300781 22.1238842010498 34.94425201416016 22.29121589660645 34.94425964355469 Z"/>
  </g>
</svg>
