<svg xmlns="http://www.w3.org/2000/svg" width="64" height="80" viewBox="0 0 64 80">
  <g id="shopping-bag_1_" data-name="shopping-bag (1)" transform="translate(-48.8)">
    <path id="Path_7" data-name="Path 7" d="M112.784,69.153l-4.578-51.583a2.2,2.2,0,0,0-2.191-2.012H96.6a15.8,15.8,0,0,0-31.591,0H55.586a2.193,2.193,0,0,0-2.191,2.012L48.816,69.153c0,.065-.016.131-.016.2,0,5.873,5.38,10.65,12,10.65h40c6.622,0,12-4.777,12-10.65A.8.8,0,0,0,112.784,69.153ZM80.8,4.417A11.4,11.4,0,0,1,92.181,15.558H69.419A11.4,11.4,0,0,1,80.8,4.417Zm20,71.166h-40c-4.153,0-7.522-2.748-7.587-6.135L57.6,19.992h7.391V26.7a2.207,2.207,0,1,0,4.415,0V19.992H92.181V26.7a2.207,2.207,0,1,0,4.415,0V19.992h7.391l4.4,49.456C108.32,72.834,104.935,75.583,100.8,75.583Z" transform="translate(0)" fill="#fff"/>
  </g>
</svg>
