<svg xmlns="http://www.w3.org/2000/svg" width="40" height="30.903" viewBox="0 0 40 30.903">
  <defs>
    <style>
      .cls-1 {
        fill: #fff;
      }
    </style>
  </defs>
  <path id="Union_3" data-name="Union 3" class="cls-1" d="M15.464,28.775a15.543,15.543,0,0,1-5.212-5.039H4.346A4.347,4.347,0,0,1,0,19.39V11.513A4.347,4.347,0,0,1,4.346,7.167h5.905A15.431,15.431,0,0,1,23.3,0a1.114,1.114,0,0,1,1.113,1.113V29.79A1.109,1.109,0,0,1,23.3,30.9,15.437,15.437,0,0,1,15.464,28.775ZM11.992,8.594V22.318a13.292,13.292,0,0,0,10.194,6.318V2.276A13.292,13.292,0,0,0,11.992,8.594Zm-9.765,2.92V19.39a2.119,2.119,0,0,0,2.12,2.12H9.765V9.394H4.346A2.119,2.119,0,0,0,2.227,11.513Zm29.3,16.9a1.121,1.121,0,0,1,.28-1.551,13.891,13.891,0,0,0,0-22.812,1.114,1.114,0,1,1,1.27-1.831,16.121,16.121,0,0,1,0,26.474,1.116,1.116,0,0,1-1.551-.28Zm-4.305-4.594a1.121,1.121,0,0,1,.28-1.551,8.289,8.289,0,0,0,0-13.608,1.114,1.114,0,0,1,1.27-1.831,10.52,10.52,0,0,1,0,17.27,1.116,1.116,0,0,1-1.551-.28Z"/>
</svg>
